<svg xmlns="http://www.w3.org/2000/svg" viewBox="0 0 400 300" fill="none">
  <defs>
    <linearGradient id="bg" x1="0" y1="0" x2="0" y2="1">
      <stop offset="0" stop-color="#142036"/>
      <stop offset="1" stop-color="#0b1220"/>
    </linearGradient>
    <radialGradient id="glow" cx="0.72" cy="0.18" r="0.9">
      <stop offset="0" stop-color="#38bdf8" stop-opacity="0.18"/>
      <stop offset="1" stop-color="#38bdf8" stop-opacity="0"/>
    </radialGradient>
  </defs>
  <rect width="400" height="300" fill="url(#bg)"/>
  <rect width="400" height="300" fill="url(#glow)"/>
  <g stroke="#7dd3fc" stroke-width="6" stroke-linecap="round" stroke-linejoin="round">
    <!-- poste -->
    <path d="M196 70 L188 258" fill="none"/>
    <path d="M204 70 L212 258" fill="none"/>
    <!-- cruzeta -->
    <path d="M132 104 H268"/>
    <!-- isoladores -->
    <circle cx="148" cy="96" r="7" fill="#0b1220"/>
    <circle cx="200" cy="96" r="7" fill="#0b1220"/>
    <circle cx="252" cy="96" r="7" fill="#0b1220"/>
    <!-- fios -->
    <path d="M148 96 C 110 150, 90 150, 60 132" fill="none" stroke="#93c5fd" stroke-width="4"/>
    <path d="M252 96 C 290 150, 310 150, 340 132" fill="none" stroke="#93c5fd" stroke-width="4"/>
  </g>
  <!-- caixa de medidor -->
  <rect x="214" y="150" width="58" height="70" rx="8" fill="#0e1729" stroke="#fcd34d" stroke-width="5"/>
  <circle cx="243" cy="178" r="12" fill="none" stroke="#fcd34d" stroke-width="4"/>
  <path d="M226 205 H260" stroke="#fcd34d" stroke-width="4" stroke-linecap="round"/>
  <!-- base -->
  <path d="M150 260 H250" stroke="#7dd3fc" stroke-width="6" stroke-linecap="round"/>
</svg>
