<svg xmlns="http://www.w3.org/2000/svg" viewBox="0 0 400 300" fill="none">
  <defs>
    <linearGradient id="bg" x1="0" y1="0" x2="0" y2="1">
      <stop offset="0" stop-color="#142036"/>
      <stop offset="1" stop-color="#0b1220"/>
    </linearGradient>
    <radialGradient id="glow" cx="0.72" cy="0.18" r="0.9">
      <stop offset="0" stop-color="#38bdf8" stop-opacity="0.18"/>
      <stop offset="1" stop-color="#38bdf8" stop-opacity="0"/>
    </radialGradient>
  </defs>
  <rect width="400" height="300" fill="url(#bg)"/>
  <rect width="400" height="300" fill="url(#glow)"/>
  <!-- prancha -->
  <rect x="96" y="64" width="208" height="172" rx="12" fill="#0e1729" stroke="#7dd3fc" stroke-width="6"/>
  <!-- grade -->
  <g stroke="#1c2b47" stroke-width="2">
    <path d="M124 64 V236"/><path d="M152 64 V236"/><path d="M180 64 V236"/>
    <path d="M208 64 V236"/><path d="M236 64 V236"/><path d="M264 64 V236"/>
    <path d="M96 92 H304"/><path d="M96 120 H304"/><path d="M96 148 H304"/>
    <path d="M96 176 H304"/><path d="M96 204 H304"/>
  </g>
  <!-- planta de casa -->
  <path d="M140 196 V132 L200 100 L260 132 V196 Z" fill="none" stroke="#93c5fd" stroke-width="5" stroke-linejoin="round"/>
  <path d="M186 196 V160 H214 V196" fill="none" stroke="#fcd34d" stroke-width="4" stroke-linejoin="round"/>
  <!-- lápis -->
  <g stroke="#fcd34d" stroke-width="5" stroke-linecap="round" stroke-linejoin="round" fill="none">
    <path d="M250 78 L300 128"/>
    <path d="M250 78 L264 70 L308 114 L300 128"/>
  </g>
  <path d="M250 78 L262 82 L260 92 Z" fill="#fcd34d"/>
</svg>
